<?xml version="1.0" encoding="UTF-8"?>
<svg xmlns="http://www.w3.org/2000/svg" viewBox="0 0 256 256" width="256" height="256">
  <defs>
    <!-- Main gradient (blue → purple) -->
    <linearGradient id="g1" x1="0%" x2="60%" y1="0%" y2="100%">
      <stop offset="0%" stop-color="#41D1FF"/>
      <stop offset="100%" stop-color="#BD34FE"/>
    </linearGradient>
    <!-- Accent gradient (yellow → orange) -->
    <linearGradient id="g2" x1="40%" x2="50%" y1="0%" y2="100%">
      <stop offset="0%" stop-color="#FFEA83"/>
      <stop offset="100%" stop-color="#FFA800"/>
    </linearGradient>
  </defs>

  <!-- Main ellipse (rotated) -->
  <path fill="url(#g1)" d="M128 12
    c-70 0-120 30-120 116s50 116 120 116
     c70 0 120-30 120-116S198 12 128 12
    m0 32c50 0 88 22 88 84s-38 84-88 84-88-22-88-84 38-84 88-84z"/>

  <!-- Inner orbit path -->
  <path fill="url(#g2)" d="M128 64
    c-35 0-64 15-64 52s29 52 64 52
     c35 0 64-15 64-52s-29-52-64-52
    m0 16c25 0 48 10 48 36s-23 36-48 36-48-10-48-36 23-36 48-36z"/>

  <!-- Center dot -->
  <circle cx="128" cy="128" r="28" fill="#fff"/>
  <circle cx="128" cy="128" r="16" fill="url(#g2)"/>
</svg>